{
	"asset":{
		"generator":"Khronos glTF Blender I/O v4.2.60",
		"version":"2.0"
	},
	"extensionsUsed":[
		"KHR_lights_punctual"
	],
	"extensionsRequired":[
		"KHR_lights_punctual"
	],
	"extensions":{
		"KHR_lights_punctual":{
			"lights":[
				{
					"color":[
						1,
						1,
						1
					],
					"intensity":100.41306588226,
					"type":"point",
					"name":"Light"
				},
				{
					"color":[
						1,
						1,
						1
					],
					"intensity":100.41306588226,
					"type":"point",
					"name":"Light.001"
				}
			]
		}
	},
	"scene":0,
	"scenes":[
		{
			"name":"Scene",
			"nodes":[
				0,
				1,
				2
			]
		}
	],
	"nodes":[
		{
			"extensions":{
				"KHR_lights_punctual":{
					"light":0
				}
			},
			"name":"Light",
			"rotation":[
				-0.28416627645492554,
				0.7269423007965088,
				0.34203392267227173,
				0.5232754945755005
			],
			"translation":[
				-1.8766965866088867,
				1.0141181945800781,
				0.27641499042510986
			]
		},
		{
			"mesh":0,
			"name":"Cylinder",
			"rotation":[
				0,
				0,
				-0.7071068286895752,
				0.7071068286895752
			],
			"scale":[
				0.7747889161109924,
				0.47276222705841064,
				1
			],
			"translation":[
				0,
				0.8002092838287354,
				0
			]
		},
		{
			"extensions":{
				"KHR_lights_punctual":{
					"light":1
				}
			},
			"name":"Light.001",
			"rotation":[
				-0.28416627645492554,
				0.7269423007965088,
				0.34203392267227173,
				0.5232754945755005
			],
			"translation":[
				1.7690248489379883,
				1.0141181945800781,
				0.27641499042510986
			]
		}
	],
	"materials":[
		{
			"doubleSided":true,
			"name":"Material.001",
			"pbrMetallicRoughness":{
				"baseColorFactor":[
					0.8401105999946594,
					0.4279654622077942,
					0,
					1
				],
				"roughnessFactor":0.12992100417613983
			}
		},
		{
			"doubleSided":true,
			"name":"Material.002",
			"pbrMetallicRoughness":{
				"baseColorFactor":[
					0,
					0,
					0,
					1
				],
				"metallicFactor":0.9527559280395508,
				"roughnessFactor":0.12204724550247192
			}
		},
		{
			"doubleSided":true,
			"name":"Material.003",
			"pbrMetallicRoughness":{
				"baseColorFactor":[
					1,
					0.40056663751602173,
					0,
					1
				],
				"metallicFactor":0.9685039520263672,
				"roughnessFactor":0.20078739523887634
			}
		}
	],
	"meshes":[
		{
			"name":"Cylinder",
			"primitives":[
				{
					"attributes":{
						"POSITION":0,
						"NORMAL":1,
						"TEXCOORD_0":2
					},
					"indices":3,
					"material":0
				},
				{
					"attributes":{
						"POSITION":4,
						"NORMAL":5,
						"TEXCOORD_0":6
					},
					"indices":7,
					"material":1
				},
				{
					"attributes":{
						"POSITION":8,
						"NORMAL":9,
						"TEXCOORD_0":10
					},
					"indices":11,
					"material":2
				}
			]
		}
	],
	"accessors":[
		{
			"bufferView":0,
			"componentType":5126,
			"count":18026,
			"max":[
				1,
				1.0000001192092896,
				1
			],
			"min":[
				-2.0768630504608154,
				-1,
				-1
			],
			"type":"VEC3"
		},
		{
			"bufferView":1,
			"componentType":5126,
			"count":18026,
			"type":"VEC3"
		},
		{
			"bufferView":2,
			"componentType":5126,
			"count":18026,
			"type":"VEC2"
		},
		{
			"bufferView":3,
			"componentType":5123,
			"count":97902,
			"type":"SCALAR"
		},
		{
			"bufferView":4,
			"componentType":5126,
			"count":92,
			"max":[
				0.7297866344451904,
				-0.9519791603088379,
				0.5905984044075012
			],
			"min":[
				-0.7947534322738647,
				-1.136574387550354,
				-0.5905984044075012
			],
			"type":"VEC3"
		},
		{
			"bufferView":5,
			"componentType":5126,
			"count":92,
			"type":"VEC3"
		},
		{
			"bufferView":6,
			"componentType":5126,
			"count":92,
			"type":"VEC2"
		},
		{
			"bufferView":7,
			"componentType":5123,
			"count":150,
			"type":"SCALAR"
		},
		{
			"bufferView":8,
			"componentType":5126,
			"count":8,
			"max":[
				0.5036029815673828,
				-1.0587173700332642,
				0.41535383462905884
			],
			"min":[
				-0.5685698986053467,
				-1.0587176084518433,
				-0.4153538942337036
			],
			"type":"VEC3"
		},
		{
			"bufferView":9,
			"componentType":5126,
			"count":8,
			"type":"VEC3"
		},
		{
			"bufferView":10,
			"componentType":5126,
			"count":8,
			"type":"VEC2"
		},
		{
			"bufferView":11,
			"componentType":5123,
			"count":24,
			"type":"SCALAR"
		}
	],
	"bufferViews":[
		{
			"buffer":0,
			"byteLength":216312,
			"byteOffset":0,
			"target":34962
		},
		{
			"buffer":0,
			"byteLength":216312,
			"byteOffset":216312,
			"target":34962
		},
		{
			"buffer":0,
			"byteLength":144208,
			"byteOffset":432624,
			"target":34962
		},
		{
			"buffer":0,
			"byteLength":195804,
			"byteOffset":576832,
			"target":34963
		},
		{
			"buffer":0,
			"byteLength":1104,
			"byteOffset":772636,
			"target":34962
		},
		{
			"buffer":0,
			"byteLength":1104,
			"byteOffset":773740,
			"target":34962
		},
		{
			"buffer":0,
			"byteLength":736,
			"byteOffset":774844,
			"target":34962
		},
		{
			"buffer":0,
			"byteLength":300,
			"byteOffset":775580,
			"target":34963
		},
		{
			"buffer":0,
			"byteLength":96,
			"byteOffset":775880,
			"target":34962
		},
		{
			"buffer":0,
			"byteLength":96,
			"byteOffset":775976,
			"target":34962
		},
		{
			"buffer":0,
			"byteLength":64,
			"byteOffset":776072,
			"target":34962
		},
		{
			"buffer":0,
			"byteLength":48,
			"byteOffset":776136,
			"target":34963
		}
	],
	"buffers":[
		{
			"byteLength":776184,
			"uri":"perfume5.bin"
		}
	]
}
