{
	"asset":{
		"generator":"Khronos glTF Blender I/O v3.6.27",
		"version":"2.0"
	},
	"extensionsUsed":[
		"KHR_lights_punctual"
	],
	"extensionsRequired":[
		"KHR_lights_punctual"
	],
	"extensions":{
		"KHR_lights_punctual":{
			"lights":[
				{
					"color":[
						1,
						1,
						1
					],
					"intensity":200.24256328042,
					"spot":{
						"innerConeAngle":0.3337942263919169,
						"outerConeAngle":0.39269909262657166
					},
					"type":"spot",
					"name":"Area"
				},
				{
					"color":[
						1,
						1,
						1
					],
					"intensity":10.7570653294113,
					"type":"point",
					"name":"Area.003"
				},
				{
					"color":[
						1,
						1,
						1
					],
					"intensity":10.7570653294113,
					"type":"point",
					"name":"Area.004"
				},
				{
					"color":[
						1,
						1,
						1
					],
					"intensity":10.7570653294113,
					"type":"point",
					"name":"Area.005"
				},
				{
					"color":[
						1,
						1,
						1
					],
					"intensity":10.7570653294113,
					"type":"point",
					"name":"Area.006"
				}
			]
		}
	},
	"scene":0,
	"scenes":[
		{
			"name":"Scene",
			"nodes":[
				0,
				1,
				2,
				3,
				4,
				5,
				6
			]
		}
	],
	"nodes":[
		{
			"mesh":0,
			"name":"Cube",
			"translation":[
				0,
				1,
				0
			]
		},
		{
			"extensions":{
				"KHR_lights_punctual":{
					"light":0
				}
			},
			"name":"Area",
			"rotation":[
				-0.7071067690849304,
				0,
				0,
				0.7071068286895752
			],
			"scale":[
				0.959602952003479,
				0.9596028923988342,
				0.9596028923988342
			],
			"translation":[
				0,
				9.179973602294922,
				0
			]
		},
		{
			"mesh":1,
			"name":"Cylinder",
			"scale":[
				0.47891247272491455,
				0.47891247272491455,
				0.47891247272491455
			],
			"translation":[
				0,
				5.274866580963135,
				0
			]
		},
		{
			"extensions":{
				"KHR_lights_punctual":{
					"light":1
				}
			},
			"name":"Area.003",
			"rotation":[
				0,
				-0.9203218221664429,
				-0.3911620080471039,
				1.4993948127539625e-07
			],
			"scale":[
				7.7579145431518555,
				7.757913589477539,
				7.757913589477539
			],
			"translation":[
				0.010614925064146519,
				2.290069580078125,
				-2.2974307537078857
			]
		},
		{
			"extensions":{
				"KHR_lights_punctual":{
					"light":2
				}
			},
			"name":"Area.001",
			"rotation":[
				-0.07865806668996811,
				-0.04814956337213516,
				-0.9498751759529114,
				0.29871684312820435
			],
			"scale":[
				7.757914066314697,
				7.757913589477539,
				7.757914066314697
			],
			"translation":[
				0.010614925064146519,
				2.290069580078125,
				2.3067567348480225
			]
		},
		{
			"extensions":{
				"KHR_lights_punctual":{
					"light":3
				}
			},
			"name":"Area.004",
			"rotation":[
				-0.38944223523139954,
				-0.08620509505271912,
				-0.03663952648639679,
				0.9162756204605103
			],
			"scale":[
				7.7579145431518555,
				7.757914066314697,
				7.757913112640381
			],
			"translation":[
				-2.299455165863037,
				2.522146224975586,
				-0.14197681844234467
			]
		},
		{
			"extensions":{
				"KHR_lights_punctual":{
					"light":4
				}
			},
			"name":"Area.005",
			"rotation":[
				-0.9530667662620544,
				0.2928934097290039,
				-0.010661217384040356,
				0.07591824233531952
			],
			"scale":[
				7.757914066314697,
				7.757913589477539,
				7.7579145431518555
			],
			"translation":[
				2.3418684005737305,
				2.5622496604919434,
				-0.0386633537709713
			]
		}
	],
	"materials":[
		{
			"doubleSided":true,
			"name":"Material",
			"pbrMetallicRoughness":{
				"baseColorFactor":[
					0.3423835337162018,
					0.12731057405471802,
					0,
					1
				],
				"metallicFactor":0.9448819160461426,
				"roughnessFactor":0.20866145193576813
			}
		},
		{
			"doubleSided":true,
			"name":"Material.001",
			"pbrMetallicRoughness":{
				"baseColorFactor":[
					1,
					0.3507213592529297,
					0.03224734216928482,
					1
				],
				"roughnessFactor":0.09055116027593613
			}
		},
		{
			"doubleSided":true,
			"name":"Material.002",
			"pbrMetallicRoughness":{
				"baseColorFactor":[
					0,
					0,
					0,
					1
				]
			}
		},
		{
			"doubleSided":true,
			"name":"Material.003",
			"pbrMetallicRoughness":{
				"baseColorFactor":[
					0,
					0,
					0,
					1
				],
				"metallicFactor":0.9370079040527344,
				"roughnessFactor":0.06692913174629211
			}
		},
		{
			"doubleSided":true,
			"name":"Material.004",
			"pbrMetallicRoughness":{
				"baseColorFactor":[
					0,
					0,
					0,
					1
				],
				"roughnessFactor":0.539370059967041
			}
		}
	],
	"meshes":[
		{
			"name":"Cube",
			"primitives":[
				{
					"attributes":{
						"POSITION":0,
						"NORMAL":1,
						"TEXCOORD_0":2
					},
					"indices":3,
					"material":0
				},
				{
					"attributes":{
						"POSITION":4,
						"NORMAL":5,
						"TEXCOORD_0":6
					},
					"indices":7,
					"material":1
				},
				{
					"attributes":{
						"POSITION":8,
						"NORMAL":9,
						"TEXCOORD_0":10
					},
					"indices":11,
					"material":2
				},
				{
					"attributes":{
						"POSITION":12,
						"NORMAL":13,
						"TEXCOORD_0":14
					},
					"indices":15,
					"material":3
				}
			]
		},
		{
			"name":"Cylinder.001",
			"primitives":[
				{
					"attributes":{
						"POSITION":16,
						"NORMAL":17,
						"TEXCOORD_0":18
					},
					"indices":19,
					"material":4
				}
			]
		}
	],
	"accessors":[
		{
			"bufferView":0,
			"componentType":5126,
			"count":525,
			"max":[
				1.1257305145263672,
				4.046210765838623,
				1.1257305145263672
			],
			"min":[
				-1.1257305145263672,
				-1.1387927532196045,
				-1.1257305145263672
			],
			"type":"VEC3"
		},
		{
			"bufferView":1,
			"componentType":5126,
			"count":525,
			"type":"VEC3"
		},
		{
			"bufferView":2,
			"componentType":5126,
			"count":525,
			"type":"VEC2"
		},
		{
			"bufferView":3,
			"componentType":5123,
			"count":2226,
			"type":"SCALAR"
		},
		{
			"bufferView":4,
			"componentType":5126,
			"count":535,
			"max":[
				1,
				3.486086845397949,
				1.0053184032440186
			],
			"min":[
				-1,
				-0.9657182693481445,
				-1
			],
			"type":"VEC3"
		},
		{
			"bufferView":5,
			"componentType":5126,
			"count":535,
			"type":"VEC3"
		},
		{
			"bufferView":6,
			"componentType":5126,
			"count":535,
			"type":"VEC2"
		},
		{
			"bufferView":7,
			"componentType":5123,
			"count":2376,
			"type":"SCALAR"
		},
		{
			"bufferView":8,
			"componentType":5126,
			"count":96,
			"max":[
				0.21756106615066528,
				4.406524658203125,
				0.21756111085414886
			],
			"min":[
				-0.21756145358085632,
				4.046210765838623,
				-0.21756111085414886
			],
			"type":"VEC3"
		},
		{
			"bufferView":9,
			"componentType":5126,
			"count":96,
			"type":"VEC3"
		},
		{
			"bufferView":10,
			"componentType":5126,
			"count":96,
			"type":"VEC2"
		},
		{
			"bufferView":11,
			"componentType":5123,
			"count":474,
			"type":"SCALAR"
		},
		{
			"bufferView":12,
			"componentType":5126,
			"count":48,
			"max":[
				0.9957455396652222,
				3.450655698776245,
				1.0053184032440186
			],
			"min":[
				-0.9980962872505188,
				-0.9657182693481445,
				-0.9998562335968018
			],
			"type":"VEC3"
		},
		{
			"bufferView":13,
			"componentType":5126,
			"count":48,
			"type":"VEC3"
		},
		{
			"bufferView":14,
			"componentType":5126,
			"count":48,
			"type":"VEC2"
		},
		{
			"bufferView":15,
			"componentType":5123,
			"count":96,
			"type":"SCALAR"
		},
		{
			"bufferView":16,
			"componentType":5126,
			"count":897,
			"max":[
				1.144895076751709,
				1,
				1.1161901950836182
			],
			"min":[
				-1.144895076751709,
				-1,
				-1.1161901950836182
			],
			"type":"VEC3"
		},
		{
			"bufferView":17,
			"componentType":5126,
			"count":897,
			"type":"VEC3"
		},
		{
			"bufferView":18,
			"componentType":5126,
			"count":897,
			"type":"VEC2"
		},
		{
			"bufferView":19,
			"componentType":5123,
			"count":1086,
			"type":"SCALAR"
		}
	],
	"bufferViews":[
		{
			"buffer":0,
			"byteLength":6300,
			"byteOffset":0,
			"target":34962
		},
		{
			"buffer":0,
			"byteLength":6300,
			"byteOffset":6300,
			"target":34962
		},
		{
			"buffer":0,
			"byteLength":4200,
			"byteOffset":12600,
			"target":34962
		},
		{
			"buffer":0,
			"byteLength":4452,
			"byteOffset":16800,
			"target":34963
		},
		{
			"buffer":0,
			"byteLength":6420,
			"byteOffset":21252,
			"target":34962
		},
		{
			"buffer":0,
			"byteLength":6420,
			"byteOffset":27672,
			"target":34962
		},
		{
			"buffer":0,
			"byteLength":4280,
			"byteOffset":34092,
			"target":34962
		},
		{
			"buffer":0,
			"byteLength":4752,
			"byteOffset":38372,
			"target":34963
		},
		{
			"buffer":0,
			"byteLength":1152,
			"byteOffset":43124,
			"target":34962
		},
		{
			"buffer":0,
			"byteLength":1152,
			"byteOffset":44276,
			"target":34962
		},
		{
			"buffer":0,
			"byteLength":768,
			"byteOffset":45428,
			"target":34962
		},
		{
			"buffer":0,
			"byteLength":948,
			"byteOffset":46196,
			"target":34963
		},
		{
			"buffer":0,
			"byteLength":576,
			"byteOffset":47144,
			"target":34962
		},
		{
			"buffer":0,
			"byteLength":576,
			"byteOffset":47720,
			"target":34962
		},
		{
			"buffer":0,
			"byteLength":384,
			"byteOffset":48296,
			"target":34962
		},
		{
			"buffer":0,
			"byteLength":192,
			"byteOffset":48680,
			"target":34963
		},
		{
			"buffer":0,
			"byteLength":10764,
			"byteOffset":48872,
			"target":34962
		},
		{
			"buffer":0,
			"byteLength":10764,
			"byteOffset":59636,
			"target":34962
		},
		{
			"buffer":0,
			"byteLength":7176,
			"byteOffset":70400,
			"target":34962
		},
		{
			"buffer":0,
			"byteLength":2172,
			"byteOffset":77576,
			"target":34963
		}
	],
	"buffers":[
		{
			"byteLength":79748,
			"uri":"data:application/octet-stream;base64,"
		}
	]
}
