{
	"asset":{
		"generator":"Khronos glTF Blender I/O v4.2.60",
		"version":"2.0"
	},
	"extensionsUsed":[
		"KHR_lights_punctual"
	],
	"extensionsRequired":[
		"KHR_lights_punctual"
	],
	"extensions":{
		"KHR_lights_punctual":{
			"lights":[
				{
					"color":[
						0.708371102809906,
						1,
						0.5394799113273621
					],
					"intensity":400.15750715071,
					"type":"point",
					"name":"Light"
				},
				{
					"color":[
						0.5860514640808105,
						1,
						0.4310351014137268
					],
					"intensity":100.15750715071,
					"type":"point",
					"name":"Light.001"
				},
				{
					"color":[
						0.708371102809906,
						1,
						0.5394799113273621
					],
					"intensity":400,
					"type":"directional",
					"name":"Spot"
				},
				{
					"color":[
						0.708371102809906,
						1,
						0.5394799113273621
					],
					"intensity":100.15750715071,
					"type":"point",
					"name":"Light.003"
				},
				{
					"color":[
						0.708371102809906,
						1,
						0.5394799113273621
					],
					"intensity":400.15750715071,
					"type":"point",
					"name":"Light.004"
				},
				{
					"color":[
						0.708371102809906,
						1,
						0.5394799113273621
					],
					"intensity":100.15750715071,
					"type":"point",
					"name":"Light.005"
				},
				{
					"color":[
						0.708371102809906,
						1,
						0.5394799113273621
					],
					"intensity":100.15750715071,
					"type":"point",
					"name":"Light.006"
				}
			]
		}
	},
	"scene":0,
	"scenes":[
		{
			"name":"Scene",
			"nodes":[
				0,
				1,
				2,
				3,
				4,
				5,
				6,
				7
			]
		}
	],
	"nodes":[
		{
			"extensions":{
				"KHR_lights_punctual":{
					"light":0
				}
			},
			"name":"Light",
			"rotation":[
				-0.28416627645492554,
				0.7269423007965088,
				0.34203392267227173,
				0.5232754945755005
			],
			"translation":[
				0.01984289288520813,
				1.8381288051605225,
				-1.6315268278121948
			]
		},
		{
			"mesh":0,
			"name":"Cylinder",
			"scale":[
				0.7372401356697083,
				1,
				0.7372401356697083
			],
			"translation":[
				0,
				1,
				0
			]
		},
		{
			"extensions":{
				"KHR_lights_punctual":{
					"light":1
				}
			},
			"name":"Light.001",
			"rotation":[
				-0.28416627645492554,
				0.7269423007965088,
				0.34203392267227173,
				0.5232754945755005
			],
			"translation":[
				0.01984289288520813,
				1.8381288051605225,
				1.43661630153656
			]
		},
		{
			"extensions":{
				"KHR_lights_punctual":{
					"light":2
				}
			},
			"name":"Spot",
			"rotation":[
				-0.7071068286895752,
				0,
				0,
				0.7071068286895752
			],
			"scale":[
				0.5671908855438232,
				0.5671908259391785,
				0.5671908259391785
			],
			"translation":[
				0,
				5.772193908691406,
				0
			]
		},
		{
			"extensions":{
				"KHR_lights_punctual":{
					"light":3
				}
			},
			"name":"Light.003",
			"rotation":[
				-0.28416627645492554,
				0.7269423007965088,
				0.34203392267227173,
				0.5232754945755005
			],
			"translation":[
				-2.0434153079986572,
				1.8464844226837158,
				0.16090381145477295
			]
		},
		{
			"extensions":{
				"KHR_lights_punctual":{
					"light":4
				}
			},
			"name":"Light.004",
			"rotation":[
				-0.28416627645492554,
				0.7269423007965088,
				0.34203392267227173,
				0.5232754945755005
			],
			"translation":[
				-2.0434153079986572,
				-0.7832639217376709,
				0.16090381145477295
			]
		},
		{
			"extensions":{
				"KHR_lights_punctual":{
					"light":5
				}
			},
			"name":"Light.002",
			"rotation":[
				-0.28416627645492554,
				0.7269423007965088,
				0.34203392267227173,
				0.5232754945755005
			],
			"translation":[
				1.920811414718628,
				1.8464844226837158,
				0.16090381145477295
			]
		},
		{
			"extensions":{
				"KHR_lights_punctual":{
					"light":6
				}
			},
			"name":"Light.005",
			"rotation":[
				-0.28416627645492554,
				0.7269423007965088,
				0.34203392267227173,
				0.5232754945755005
			],
			"translation":[
				1.920811414718628,
				-0.7832639217376709,
				0.16090381145477295
			]
		}
	],
	"materials":[
		{
			"doubleSided":true,
			"name":"Material.001",
			"pbrMetallicRoughness":{
				"baseColorFactor":[
					0.0006362922722473741,
					0.0040370565839111805,
					0,
					1
				],
				"metallicFactor":0.9448818564414978,
				"roughnessFactor":0.07480314373970032
			}
		},
		{
			"doubleSided":true,
			"name":"Material.002",
			"pbrMetallicRoughness":{
				"baseColorFactor":[
					0,
					0,
					0,
					1
				],
				"roughnessFactor":0.8307086229324341
			}
		},
		{
			"doubleSided":true,
			"name":"Material.003",
			"pbrMetallicRoughness":{
				"baseColorFactor":[
					0.04599935561418533,
					1,
					0,
					1
				],
				"metallicFactor":0.9370078444480896,
				"roughnessFactor":0.09055116772651672
			}
		},
		{
			"doubleSided":true,
			"name":"Material.004",
			"pbrMetallicRoughness":{
				"baseColorFactor":[
					0.03703796863555908,
					0.548880398273468,
					0,
					1
				],
				"roughnessFactor":0.06692913174629211
			}
		}
	],
	"meshes":[
		{
			"name":"Cylinder",
			"primitives":[
				{
					"attributes":{
						"POSITION":0,
						"NORMAL":1,
						"TEXCOORD_0":2
					},
					"indices":3,
					"material":0
				},
				{
					"attributes":{
						"POSITION":4,
						"NORMAL":5,
						"TEXCOORD_0":6
					},
					"indices":7,
					"material":1
				},
				{
					"attributes":{
						"POSITION":8,
						"NORMAL":9,
						"TEXCOORD_0":10
					},
					"indices":11,
					"material":2
				},
				{
					"attributes":{
						"POSITION":12,
						"NORMAL":13,
						"TEXCOORD_0":14
					},
					"indices":15,
					"material":3
				}
			]
		}
	],
	"accessors":[
		{
			"bufferView":0,
			"componentType":5126,
			"count":1284,
			"max":[
				1.0059491395950317,
				2.3408334255218506,
				1.0059491395950317
			],
			"min":[
				-1.0059491395950317,
				-1,
				-1.0059491395950317
			],
			"type":"VEC3"
		},
		{
			"bufferView":1,
			"componentType":5126,
			"count":1284,
			"type":"VEC3"
		},
		{
			"bufferView":2,
			"componentType":5126,
			"count":1284,
			"type":"VEC2"
		},
		{
			"bufferView":3,
			"componentType":5123,
			"count":1752,
			"type":"SCALAR"
		},
		{
			"bufferView":4,
			"componentType":5126,
			"count":120,
			"max":[
				0.8293824195861816,
				2.6954827308654785,
				0.8293824195861816
			],
			"min":[
				-0.8293824195861816,
				2.035099744796753,
				-0.8293824195861816
			],
			"type":"VEC3"
		},
		{
			"bufferView":5,
			"componentType":5126,
			"count":120,
			"type":"VEC3"
		},
		{
			"bufferView":6,
			"componentType":5126,
			"count":120,
			"type":"VEC2"
		},
		{
			"bufferView":7,
			"componentType":5123,
			"count":180,
			"type":"SCALAR"
		},
		{
			"bufferView":8,
			"componentType":5126,
			"count":168,
			"max":[
				0.8658765554428101,
				2.6954827308654785,
				0.8658765554428101
			],
			"min":[
				-0.8658765554428101,
				2,
				-0.8658765554428101
			],
			"type":"VEC3"
		},
		{
			"bufferView":9,
			"componentType":5126,
			"count":168,
			"type":"VEC3"
		},
		{
			"bufferView":10,
			"componentType":5126,
			"count":168,
			"type":"VEC2"
		},
		{
			"bufferView":11,
			"componentType":5123,
			"count":288,
			"type":"SCALAR"
		},
		{
			"bufferView":12,
			"componentType":5126,
			"count":12,
			"max":[
				0.2732299864292145,
				2.6705527305603027,
				0.2732299864292145
			],
			"min":[
				-0.2732299864292145,
				2.6705527305603027,
				-0.2732299268245697
			],
			"type":"VEC3"
		},
		{
			"bufferView":13,
			"componentType":5126,
			"count":12,
			"type":"VEC3"
		},
		{
			"bufferView":14,
			"componentType":5126,
			"count":12,
			"type":"VEC2"
		},
		{
			"bufferView":15,
			"componentType":5123,
			"count":30,
			"type":"SCALAR"
		}
	],
	"bufferViews":[
		{
			"buffer":0,
			"byteLength":15408,
			"byteOffset":0,
			"target":34962
		},
		{
			"buffer":0,
			"byteLength":15408,
			"byteOffset":15408,
			"target":34962
		},
		{
			"buffer":0,
			"byteLength":10272,
			"byteOffset":30816,
			"target":34962
		},
		{
			"buffer":0,
			"byteLength":3504,
			"byteOffset":41088,
			"target":34963
		},
		{
			"buffer":0,
			"byteLength":1440,
			"byteOffset":44592,
			"target":34962
		},
		{
			"buffer":0,
			"byteLength":1440,
			"byteOffset":46032,
			"target":34962
		},
		{
			"buffer":0,
			"byteLength":960,
			"byteOffset":47472,
			"target":34962
		},
		{
			"buffer":0,
			"byteLength":360,
			"byteOffset":48432,
			"target":34963
		},
		{
			"buffer":0,
			"byteLength":2016,
			"byteOffset":48792,
			"target":34962
		},
		{
			"buffer":0,
			"byteLength":2016,
			"byteOffset":50808,
			"target":34962
		},
		{
			"buffer":0,
			"byteLength":1344,
			"byteOffset":52824,
			"target":34962
		},
		{
			"buffer":0,
			"byteLength":576,
			"byteOffset":54168,
			"target":34963
		},
		{
			"buffer":0,
			"byteLength":144,
			"byteOffset":54744,
			"target":34962
		},
		{
			"buffer":0,
			"byteLength":144,
			"byteOffset":54888,
			"target":34962
		},
		{
			"buffer":0,
			"byteLength":96,
			"byteOffset":55032,
			"target":34962
		},
		{
			"buffer":0,
			"byteLength":60,
			"byteOffset":55128,
			"target":34963
		}
	],
	"buffers":[
		{
			"byteLength":55188,
			"uri":"perfume1.bin"
		}
	]
}
