{
	"asset":{
		"generator":"Khronos glTF Blender I/O v4.2.60",
		"version":"2.0"
	},
	"extensionsUsed":[
		"KHR_lights_punctual",
		"KHR_materials_specular",
		"KHR_materials_unlit"
	],
	"extensionsRequired":[
		"KHR_lights_punctual"
	],
	"extensions":{
		"KHR_lights_punctual":{
			"lights":[
				{
					"color":[
						0.497382253408432,
						1,
						0.4007982015609741
					],
					"intensity":100.5141306588226,
					"spot":{
						"innerConeAngle":0.3337942263919169,
						"outerConeAngle":0.39269909262657166
					},
					"type":"spot",
					"name":"Spot"
				},
				{
					"color":[
						1,
						1,
						1
					],
					"intensity":10.4516310429373,
					"type":"point",
					"name":"Point"
				},
				{
					"color":[
						1,
						1,
						1
					],
					"intensity":10.4303298511512,
					"type":"point",
					"name":"Point.001"
				},
				{
					"color":[
						1,
						1,
						1
					],
					"intensity":10.00820858469184,
					"type":"point",
					"name":"Point.002"
				},
				{
					"color":[
						1,
						1,
						1
					],
					"intensity":10.20043595411005,
					"type":"point",
					"name":"Point.003"
				}
			]
		}
	},
	"scene":0,
	"scenes":[
		{
			"name":"Scene",
			"nodes":[
				0,
				1,
				2,
				3,
				4,
				8
			]
		}
	],
	"nodes":[
		{
			"extensions":{
				"KHR_lights_punctual":{
					"light":0
				}
			},
			"name":"Spot",
			"rotation":[
				-0.7071068286895752,
				0,
				0,
				0.7071068286895752
			],
			"scale":[
				0.4020789861679077,
				0.4020789563655853,
				0.4020789563655853
			],
			"translation":[
				0,
				3.7583189010620117,
				0
			]
		},
		{
			"extensions":{
				"KHR_lights_punctual":{
					"light":1
				}
			},
			"name":"Point",
			"rotation":[
				-0.7071068286895752,
				0,
				0,
				0.7071068286895752
			],
			"translation":[
				0.18648916482925415,
				0.7479754686355591,
				-1.1849920749664307
			]
		},
		{
			"extensions":{
				"KHR_lights_punctual":{
					"light":2
				}
			},
			"name":"Point.001",
			"rotation":[
				-0.7071068286895752,
				0,
				0,
				0.7071068286895752
			],
			"translation":[
				0.020485281944274902,
				0.7479754686355591,
				1.1152597665786743
			]
		},
		{
			"extensions":{
				"KHR_lights_punctual":{
					"light":3
				}
			},
			"name":"Point.002",
			"rotation":[
				-0.7071068286895752,
				0,
				0,
				0.7071068286895752
			],
			"translation":[
				-0.9650887846946716,
				0.7479754686355591,
				0.05824083834886551
			]
		},
		{
			"extensions":{
				"KHR_lights_punctual":{
					"light":4
				}
			},
			"name":"Point.003",
			"rotation":[
				-0.7071068286895752,
				0,
				0,
				0.7071068286895752
			],
			"translation":[
				1.0278053283691406,
				0.7479754686355591,
				0.018673717975616455
			]
		},
		{
			"mesh":0,
			"name":"Cube.002",
			"scale":[
				0.2737731635570526,
				0.2115572690963745,
				0.9919036030769348
			],
			"translation":[
				0,
				1.219238042831421,
				0
			]
		},
		{
			"mesh":1,
			"name":"Cylinder.002",
			"rotation":[
				0,
				0,
				-0.7071068286895752,
				0.7071068286895752
			],
			"scale":[
				0.35638368129730225,
				0.11449175328016281,
				0.4159109592437744
			],
			"translation":[
				0.9017594456672668,
				0.4643135070800781,
				0
			]
		},
		{
			"children":[
				6
			],
			"mesh":2,
			"name":"Cylinder.003",
			"rotation":[
				0,
				0.7269619107246399,
				0,
				0.686677873134613
			],
			"scale":[
				0.2569478452205658,
				0.12807714939117432,
				0.1249857023358345
			],
			"translation":[
				0,
				1.1214070320129395,
				0
			]
		},
		{
			"children":[
				5,
				7
			],
			"mesh":3,
			"name":"Cube.001",
			"scale":[
				0.5578050017356873,
				0.6332390904426575,
				0.2702620327472687
			],
			"translation":[
				0,
				0.7392492890357971,
				0.021242856979370117
			]
		}
	],
	"materials":[
		{
			"doubleSided":true,
			"name":"Material.007",
			"pbrMetallicRoughness":{
				"baseColorFactor":[
					0.036426324397325516,
					0,
					0,
					1
				],
				"metallicFactor":0,
				"roughnessFactor":0.4685039520263672
			}
		},
		{
			"doubleSided":true,
			"extensions":{
				"KHR_materials_unlit":{}
			},
			"name":"Material.008",
			"pbrMetallicRoughness":{
				"baseColorTexture":{
					"index":0
				},
				"metallicFactor":0,
				"roughnessFactor":0.9
			}
		},
		{
			"doubleSided":true,
			"name":"Material.003",
			"pbrMetallicRoughness":{
				"baseColorFactor":[
					0.06827463954687119,
					0.06827463954687119,
					0.06827463954687119,
					1
				]
			}
		},
		{
			"doubleSided":true,
			"name":"Material.004",
			"pbrMetallicRoughness":{
				"baseColorFactor":[
					0.04431430995464325,
					0.04431430995464325,
					0.04431430995464325,
					1
				],
				"roughnessFactor":0.18503937125205994
			}
		},
		{
			"doubleSided":true,
			"name":"Material.005",
			"pbrMetallicRoughness":{
				"baseColorFactor":[
					0.47931772470474243,
					0.0009105235221795738,
					0,
					1
				],
				"roughnessFactor":0.16535432636737823
			}
		},
		{
			"doubleSided":true,
			"extensions":{
				"KHR_materials_specular":{
					"specularFactor":0.7999999523162842
				}
			},
			"name":"Material.006",
			"pbrMetallicRoughness":{
				"baseColorTexture":{
					"index":1
				},
				"roughnessFactor":0.27272725105285645
			}
		}
	],
	"meshes":[
		{
			"name":"Cube.002",
			"primitives":[
				{
					"attributes":{
						"POSITION":0,
						"NORMAL":1,
						"TEXCOORD_0":2
					},
					"indices":3,
					"material":0
				},
				{
					"attributes":{
						"POSITION":4,
						"NORMAL":5,
						"TEXCOORD_0":6
					},
					"indices":7,
					"material":1
				}
			]
		},
		{
			"name":"Cylinder.002",
			"primitives":[
				{
					"attributes":{
						"POSITION":8,
						"NORMAL":9,
						"TEXCOORD_0":10
					},
					"indices":11,
					"material":2
				}
			]
		},
		{
			"name":"Cylinder.003",
			"primitives":[
				{
					"attributes":{
						"POSITION":12,
						"NORMAL":13,
						"TEXCOORD_0":14
					},
					"indices":15,
					"material":3
				}
			]
		},
		{
			"name":"Cube.001",
			"primitives":[
				{
					"attributes":{
						"POSITION":16,
						"NORMAL":17,
						"TEXCOORD_0":18
					},
					"indices":19,
					"material":4
				},
				{
					"attributes":{
						"POSITION":20,
						"NORMAL":21,
						"TEXCOORD_0":22
					},
					"indices":23,
					"material":5
				}
			]
		}
	],
	"textures":[
		{
			"sampler":0,
			"source":0
		},
		{
			"sampler":0,
			"source":1
		}
	],
	"images":[
		{
			"mimeType":"image/png",
			"name":"Ayesha.",
			"uri":"Ayesha_.png"
		},
		{
			"mimeType":"image/png",
			"name":"Ayesha. (1)",
			"uri":"Ayesha_%201.png"
		}
	],
	"accessors":[
		{
			"bufferView":0,
			"componentType":5126,
			"count":24,
			"max":[
				1,
				1.0798709392547607,
				1
			],
			"min":[
				-1,
				-1,
				-1
			],
			"type":"VEC3"
		},
		{
			"bufferView":1,
			"componentType":5126,
			"count":24,
			"type":"VEC3"
		},
		{
			"bufferView":2,
			"componentType":5126,
			"count":24,
			"type":"VEC2"
		},
		{
			"bufferView":3,
			"componentType":5123,
			"count":48,
			"type":"SCALAR"
		},
		{
			"bufferView":4,
			"componentType":5126,
			"count":4,
			"max":[
				0.7911930084228516,
				0.8710639476776123,
				-1
			],
			"min":[
				-0.7911930084228516,
				-0.7911930084228516,
				-1
			],
			"type":"VEC3"
		},
		{
			"bufferView":5,
			"componentType":5126,
			"count":4,
			"type":"VEC3"
		},
		{
			"bufferView":6,
			"componentType":5126,
			"count":4,
			"type":"VEC2"
		},
		{
			"bufferView":7,
			"componentType":5123,
			"count":6,
			"type":"SCALAR"
		},
		{
			"bufferView":8,
			"componentType":5126,
			"count":1944,
			"max":[
				0.9998119473457336,
				1,
				1
			],
			"min":[
				-0.9998119473457336,
				-1,
				-1
			],
			"type":"VEC3"
		},
		{
			"bufferView":9,
			"componentType":5126,
			"count":1944,
			"type":"VEC3"
		},
		{
			"bufferView":10,
			"componentType":5126,
			"count":1944,
			"type":"VEC2"
		},
		{
			"bufferView":11,
			"componentType":5123,
			"count":3876,
			"type":"SCALAR"
		},
		{
			"bufferView":12,
			"componentType":5126,
			"count":1138,
			"max":[
				0.9998119473457336,
				1,
				1
			],
			"min":[
				-0.9998119473457336,
				-1,
				-1
			],
			"type":"VEC3"
		},
		{
			"bufferView":13,
			"componentType":5126,
			"count":1138,
			"type":"VEC3"
		},
		{
			"bufferView":14,
			"componentType":5126,
			"count":1138,
			"type":"VEC2"
		},
		{
			"bufferView":15,
			"componentType":5123,
			"count":4848,
			"type":"SCALAR"
		},
		{
			"bufferView":16,
			"componentType":5126,
			"count":1410,
			"max":[
				1,
				1.0241397619247437,
				1
			],
			"min":[
				-1,
				-1,
				-1.034332036972046
			],
			"type":"VEC3"
		},
		{
			"bufferView":17,
			"componentType":5126,
			"count":1410,
			"type":"VEC3"
		},
		{
			"bufferView":18,
			"componentType":5126,
			"count":1410,
			"type":"VEC2"
		},
		{
			"bufferView":19,
			"componentType":5123,
			"count":6342,
			"type":"SCALAR"
		},
		{
			"bufferView":20,
			"componentType":5126,
			"count":4,
			"max":[
				0.9161073565483093,
				0.2198200523853302,
				-1.034332036972046
			],
			"min":[
				-0.9161073565483093,
				-0.29573163390159607,
				-1.034332036972046
			],
			"type":"VEC3"
		},
		{
			"bufferView":21,
			"componentType":5126,
			"count":4,
			"type":"VEC3"
		},
		{
			"bufferView":22,
			"componentType":5126,
			"count":4,
			"type":"VEC2"
		},
		{
			"bufferView":23,
			"componentType":5123,
			"count":6,
			"type":"SCALAR"
		}
	],
	"bufferViews":[
		{
			"buffer":0,
			"byteLength":288,
			"byteOffset":0,
			"target":34962
		},
		{
			"buffer":0,
			"byteLength":288,
			"byteOffset":288,
			"target":34962
		},
		{
			"buffer":0,
			"byteLength":192,
			"byteOffset":576,
			"target":34962
		},
		{
			"buffer":0,
			"byteLength":96,
			"byteOffset":768,
			"target":34963
		},
		{
			"buffer":0,
			"byteLength":48,
			"byteOffset":864,
			"target":34962
		},
		{
			"buffer":0,
			"byteLength":48,
			"byteOffset":912,
			"target":34962
		},
		{
			"buffer":0,
			"byteLength":32,
			"byteOffset":960,
			"target":34962
		},
		{
			"buffer":0,
			"byteLength":12,
			"byteOffset":992,
			"target":34963
		},
		{
			"buffer":0,
			"byteLength":23328,
			"byteOffset":1004,
			"target":34962
		},
		{
			"buffer":0,
			"byteLength":23328,
			"byteOffset":24332,
			"target":34962
		},
		{
			"buffer":0,
			"byteLength":15552,
			"byteOffset":47660,
			"target":34962
		},
		{
			"buffer":0,
			"byteLength":7752,
			"byteOffset":63212,
			"target":34963
		},
		{
			"buffer":0,
			"byteLength":13656,
			"byteOffset":70964,
			"target":34962
		},
		{
			"buffer":0,
			"byteLength":13656,
			"byteOffset":84620,
			"target":34962
		},
		{
			"buffer":0,
			"byteLength":9104,
			"byteOffset":98276,
			"target":34962
		},
		{
			"buffer":0,
			"byteLength":9696,
			"byteOffset":107380,
			"target":34963
		},
		{
			"buffer":0,
			"byteLength":16920,
			"byteOffset":117076,
			"target":34962
		},
		{
			"buffer":0,
			"byteLength":16920,
			"byteOffset":133996,
			"target":34962
		},
		{
			"buffer":0,
			"byteLength":11280,
			"byteOffset":150916,
			"target":34962
		},
		{
			"buffer":0,
			"byteLength":12684,
			"byteOffset":162196,
			"target":34963
		},
		{
			"buffer":0,
			"byteLength":48,
			"byteOffset":174880,
			"target":34962
		},
		{
			"buffer":0,
			"byteLength":48,
			"byteOffset":174928,
			"target":34962
		},
		{
			"buffer":0,
			"byteLength":32,
			"byteOffset":174976,
			"target":34962
		},
		{
			"buffer":0,
			"byteLength":12,
			"byteOffset":175008,
			"target":34963
		}
	],
	"samplers":[
		{
			"magFilter":9729,
			"minFilter":9987
		}
	],
	"buffers":[
		{
			"byteLength":175020,
			"uri":"perfume3.bin"
		}
	]
}
